<svg width="1382" height="843" viewBox="0 0 1382 843" fill="none" xmlns="http://www.w3.org/2000/svg">
<g clip-path="url(#clip0_1796_3001)">
<rect width="1382" height="843" rx="30" fill="url(#paint0_linear_1796_3001)"/>
<path d="M-218.709 8.63892L1600.09 8.639" stroke="#5494DC" stroke-opacity="0.05" stroke-width="2.2399"/>
<path d="M-218.709 62.3965L1600.09 62.3966" stroke="#5494DC" stroke-opacity="0.05" stroke-width="2.2399"/>
<path d="M-218.709 116.154L1600.09 116.154" stroke="#5494DC" stroke-opacity="0.05" stroke-width="2.2399"/>
<path d="M-218.709 169.911L1600.09 169.911" stroke="#5494DC" stroke-opacity="0.05" stroke-width="2.2399"/>
<path d="M-218.709 223.669L1600.09 223.669" stroke="#5494DC" stroke-opacity="0.05" stroke-width="2.2399"/>
<path d="M-218.709 277.427L1600.09 277.427" stroke="#5494DC" stroke-opacity="0.05" stroke-width="2.2399"/>
<path d="M-218.709 331.184L1600.09 331.184" stroke="#5494DC" stroke-opacity="0.05" stroke-width="2.2399"/>
<path d="M-218.709 384.941L1600.09 384.941" stroke="#5494DC" stroke-opacity="0.05" stroke-width="2.2399"/>
<path d="M-218.709 438.699L1600.09 438.699" stroke="#5494DC" stroke-opacity="0.05" stroke-width="2.2399"/>
<path d="M-218.709 492.457L1600.09 492.457" stroke="#5494DC" stroke-opacity="0.05" stroke-width="2.2399"/>
<path d="M-218.709 546.214L1600.09 546.214" stroke="#5494DC" stroke-opacity="0.05" stroke-width="2.2399"/>
<path d="M-218.709 599.971L1600.09 599.972" stroke="#5494DC" stroke-opacity="0.05" stroke-width="2.2399"/>
<path d="M-218.709 653.729L1600.09 653.729" stroke="#5494DC" stroke-opacity="0.05" stroke-width="2.2399"/>
<path d="M-218.709 707.486L1600.09 707.486" stroke="#5494DC" stroke-opacity="0.05" stroke-width="2.2399"/>
<path d="M-218.709 761.244L1600.09 761.244" stroke="#5494DC" stroke-opacity="0.05" stroke-width="2.2399"/>
<path d="M-218.709 815.001L1600.09 815.002" stroke="#5494DC" stroke-opacity="0.05" stroke-width="2.2399"/>
<path d="M48.957 -16L48.957 843" stroke="#5494DC" stroke-opacity="0.05" stroke-width="2.2399"/>
<path d="M116.154 -16L116.154 843" stroke="#5494DC" stroke-opacity="0.05" stroke-width="2.2399"/>
<path d="M183.352 -16L183.352 843" stroke="#5494DC" stroke-opacity="0.05" stroke-width="2.2399"/>
<path d="M250.549 -16L250.549 843" stroke="#5494DC" stroke-opacity="0.05" stroke-width="2.2399"/>
<path d="M317.746 -16L317.746 843" stroke="#5494DC" stroke-opacity="0.05" stroke-width="2.2399"/>
<path d="M384.941 -16L384.941 843" stroke="#5494DC" stroke-opacity="0.05" stroke-width="2.2399"/>
<path d="M452.139 -16L452.139 843" stroke="#5494DC" stroke-opacity="0.05" stroke-width="2.2399"/>
<path d="M519.336 -16L519.336 843" stroke="#5494DC" stroke-opacity="0.05" stroke-width="2.2399"/>
<path d="M586.533 -16L586.533 843" stroke="#5494DC" stroke-opacity="0.05" stroke-width="2.2399"/>
<path d="M653.73 -16L653.73 843" stroke="#5494DC" stroke-opacity="0.05" stroke-width="2.2399"/>
<path d="M720.926 -16L720.926 843" stroke="#5494DC" stroke-opacity="0.05" stroke-width="2.2399"/>
<path d="M788.123 -16L788.123 843" stroke="#5494DC" stroke-opacity="0.05" stroke-width="2.2399"/>
<path d="M855.32 -16L855.32 843" stroke="#5494DC" stroke-opacity="0.05" stroke-width="2.2399"/>
<path d="M922.518 -16L922.518 843" stroke="#5494DC" stroke-opacity="0.05" stroke-width="2.2399"/>
<path d="M989.715 -16L989.715 843" stroke="#5494DC" stroke-opacity="0.05" stroke-width="2.2399"/>
<path d="M1056.91 -16L1056.91 843" stroke="#5494DC" stroke-opacity="0.05" stroke-width="2.2399"/>
<path d="M1124.11 -16L1124.11 843" stroke="#5494DC" stroke-opacity="0.05" stroke-width="2.2399"/>
<path d="M1191.3 -16L1191.3 843" stroke="#5494DC" stroke-opacity="0.05" stroke-width="2.2399"/>
<path d="M1258.5 -16L1258.5 843" stroke="#5494DC" stroke-opacity="0.05" stroke-width="2.2399"/>
<path d="M1325.7 -16L1325.7 843" stroke="#5494DC" stroke-opacity="0.05" stroke-width="2.2399"/>
<path d="M-2.5 769.5C53.1667 682.333 231.9 526.6 501.5 601C838.5 694 568.5 967.5 535 886C501.5 804.5 598.261 674.152 685 646C799 609 1215.67 815.333 1441 886" stroke="#213F5F" stroke-width="2" stroke-linecap="round"/>
<path d="M41.3906 863L110.913 730" stroke="#5494DC" stroke-width="47" stroke-linecap="round"/>
<path d="M15.9999 801.543L126.288 784.066" stroke="#5494DC" stroke-width="39" stroke-linecap="round"/>
<path d="M142.04 814.458L38.157 773.505" stroke="#5494DC" stroke-width="47" stroke-linecap="round"/>
</g>
<defs>
<linearGradient id="paint0_linear_1796_3001" x1="692.843" y1="843" x2="695.14" y2="-11.4161" gradientUnits="userSpaceOnUse">
<stop stop-color="#111111"/>
<stop offset="1" stop-color="#5494DC"/>
</linearGradient>
<clipPath id="clip0_1796_3001">
<rect width="1382" height="843" rx="30" fill="white"/>
</clipPath>
</defs>
</svg>
