<svg width="155" height="44" viewBox="0 0 155 44" fill="none" xmlns="http://www.w3.org/2000/svg">
<path d="M60.9141 34.7146V10.015C60.9141 8.8078 60.9141 8.20419 61.2796 7.84892C61.6452 7.49365 62.2564 7.51113 63.4787 7.5461C81.6632 8.0663 128.063 3.21093 152.305 0.323841C153.561 0.174239 154.189 0.099439 154.594 0.459347C155 0.819255 155 1.45376 155 2.72277V40.025C155 41.5592 155 42.3263 154.531 42.6884C154.063 43.0506 153.295 42.8512 151.759 42.4524C132.194 37.3729 86.7673 37.2351 63.3118 37.1262C62.1817 37.121 61.6167 37.1184 61.2654 36.7654C60.9141 36.4125 60.9141 35.8465 60.9141 34.7146Z" fill="#5494DC"/>
<path d="M7.95626 31.0614C6.50718 31.0614 5.25633 30.7539 4.20369 30.1387C3.15106 29.5098 2.33766 28.6144 1.7635 27.4524C1.20301 26.2904 0.922762 24.9097 0.922762 23.3102C0.922762 21.6834 1.20984 20.2822 1.78401 19.1065C2.37184 17.9309 3.19207 17.0286 4.24471 16.3998C5.29734 15.7573 6.53452 15.436 7.95626 15.436C9.378 15.436 10.6083 15.7573 11.6473 16.3998C12.6999 17.0286 13.5133 17.9309 14.0875 19.1065C14.6617 20.2685 14.9487 21.6629 14.9487 23.2897C14.9487 24.8892 14.6617 26.2699 14.0875 27.4319C13.527 28.5939 12.7204 29.4893 11.6678 30.1182C10.6152 30.747 9.378 31.0614 7.95626 31.0614ZM7.95626 28.5392C9.07724 28.5392 9.89748 28.1359 10.417 27.3294C10.9364 26.5091 11.1962 25.1763 11.1962 23.3307C11.1962 21.4442 10.9296 20.0772 10.3965 19.2296C9.87697 18.3683 9.06357 17.9377 7.95626 17.9377C6.83527 17.9377 6.00821 18.3683 5.47506 19.2296C4.9419 20.0908 4.67533 21.4579 4.67533 23.3307C4.67533 25.1626 4.93507 26.4886 5.45455 27.3089C5.9877 28.1291 6.8216 28.5392 7.95626 28.5392ZM29.7624 20.3779C29.7624 21.3895 29.5232 22.2439 29.0447 22.9411C28.5663 23.6247 27.9101 24.1441 27.0762 24.4996C26.2559 24.855 25.299 25.0327 24.2054 25.0327H21.1295C20.9791 25.0327 20.9039 25.1079 20.9039 25.2583V30.3848C20.9039 30.6992 20.7262 30.8564 20.3708 30.8564H17.746C17.582 30.8564 17.4658 30.8222 17.3974 30.7539C17.3427 30.6855 17.3154 30.583 17.3154 30.4463V16.0307C17.3154 15.7709 17.4248 15.6411 17.6435 15.6411H23.7952C24.8889 15.6411 25.8868 15.8119 26.7891 16.1537C27.705 16.4955 28.4296 17.015 28.9627 17.7122C29.4959 18.4093 29.7624 19.2979 29.7624 20.3779ZM26.0714 20.3164C26.0714 19.8379 25.9689 19.4483 25.7638 19.1476C25.5587 18.8331 25.2648 18.6007 24.8821 18.4504C24.4993 18.3 24.0618 18.2248 23.5697 18.2248H21.2935C21.0338 18.2248 20.9039 18.341 20.9039 18.5734V22.0799C20.9039 22.3396 20.9996 22.4695 21.191 22.4695H23.7132C24.4378 22.4695 25.0119 22.2781 25.4357 21.8953C25.8595 21.5126 26.0714 20.9862 26.0714 20.3164ZM31.9739 16.0307C31.9739 15.7709 32.0832 15.6411 32.302 15.6411H42.6369C42.842 15.6411 42.9445 15.7573 42.9445 15.9897L42.924 17.8352C42.924 18.1223 42.7804 18.2658 42.4934 18.2658H35.952C35.6923 18.2658 35.5624 18.3752 35.5624 18.5939V21.5672C35.5624 21.7996 35.6649 21.9158 35.87 21.9158H40.2172C40.4496 21.9158 40.5658 22.0252 40.5658 22.2439V24.2125C40.5658 24.2945 40.5385 24.3629 40.4838 24.4176C40.4428 24.4722 40.3607 24.4996 40.2377 24.4996H35.8495C35.6581 24.4996 35.5624 24.5816 35.5624 24.7456V27.9651C35.5624 28.1428 35.6376 28.2316 35.7879 28.2316H42.8009C43.047 28.2316 43.17 28.3342 43.17 28.5392V30.4873C43.17 30.5966 43.1359 30.6855 43.0675 30.7539C43.0128 30.8222 42.9103 30.8564 42.7599 30.8564H32.425C32.1242 30.8564 31.9739 30.7128 31.9739 30.4258V16.0307ZM57.8173 15.6411C57.995 15.6411 58.0839 15.7436 58.0839 15.9486V30.5283C58.0839 30.624 58.0497 30.706 57.9813 30.7744C57.913 30.829 57.8173 30.8564 57.6943 30.8564H55.6232C55.5138 30.8564 55.4249 30.8427 55.3566 30.8154C55.2882 30.788 55.2062 30.7197 55.1105 30.6103L48.5692 21.4237C48.5145 21.3554 48.4598 21.328 48.4051 21.3417C48.3641 21.3554 48.3436 21.3964 48.3436 21.4647V30.4873C48.3573 30.7333 48.2206 30.8564 47.9335 30.8564H45.8009C45.5275 30.8564 45.3908 30.7402 45.3908 30.5078V16.0307C45.3908 15.7709 45.5138 15.6411 45.7599 15.6411H48.2411C48.3914 15.6411 48.5008 15.6616 48.5692 15.7026C48.6512 15.7436 48.74 15.8256 48.8357 15.9486L54.8645 24.5406C54.9465 24.65 55.0148 24.6978 55.0695 24.6841C55.1379 24.6705 55.172 24.6021 55.172 24.4791V16.0102C55.172 15.7641 55.2951 15.6411 55.5411 15.6411H57.8173Z" fill="black"/>
<path d="M77.5202 30.3027C77.5749 30.4531 77.568 30.583 77.4997 30.6923C77.445 30.8017 77.3493 30.8564 77.2126 30.8564H74.1982C73.9658 30.8564 73.8155 30.7333 73.7471 30.4873L71.5325 24.7456C71.4505 24.5543 71.2591 24.4586 70.9583 24.4586H69.0103C68.9146 24.4586 68.8462 24.4859 68.8052 24.5406C68.7779 24.5953 68.7642 24.6431 68.7642 24.6841V30.3642C68.7642 30.6923 68.5796 30.8564 68.2105 30.8564H65.6063C65.4423 30.8564 65.3261 30.8222 65.2577 30.7539C65.203 30.6855 65.1757 30.583 65.1757 30.4463V16.0307C65.1757 15.7709 65.285 15.6411 65.5038 15.6411H71.9016C73.7334 15.6411 75.1552 16.0033 76.1668 16.7279C77.1921 17.4524 77.7047 18.4845 77.7047 19.8243C77.7047 20.5214 77.5749 21.1435 77.3151 21.6903C77.0554 22.2371 76.7136 22.6951 76.2898 23.0642C75.866 23.4196 75.4012 23.6862 74.8954 23.8639C74.7724 23.9049 74.7451 24.0074 74.8134 24.1715L77.5202 30.3027ZM71.5735 22.0389C72.3527 22.0389 72.9474 21.8748 73.3575 21.5467C73.7813 21.205 73.9932 20.7128 73.9932 20.0703C73.9932 19.4005 73.7813 18.8947 73.3575 18.5529C72.9337 18.2111 72.3732 18.0402 71.676 18.0402H69.1538C68.8941 18.0402 68.7642 18.1564 68.7642 18.3888V21.6903C68.7642 21.9227 68.8599 22.0389 69.0513 22.0389H71.5735ZM86.2949 31.0614C84.8458 31.0614 83.595 30.7539 82.5423 30.1387C81.4897 29.5098 80.6763 28.6144 80.1022 27.4524C79.5417 26.2904 79.2614 24.9097 79.2614 23.3102C79.2614 21.6834 79.5485 20.2822 80.1227 19.1065C80.7105 17.9309 81.5307 17.0286 82.5834 16.3998C83.636 15.7573 84.8732 15.436 86.2949 15.436C87.7167 15.436 88.947 15.7573 89.986 16.3998C91.0386 17.0286 91.852 17.9309 92.4262 19.1065C93.0003 20.2685 93.2874 21.6629 93.2874 23.2897C93.2874 24.8892 93.0003 26.2699 92.4262 27.4319C91.8657 28.5939 91.0591 29.4893 90.0065 30.1182C88.9538 30.747 87.7167 31.0614 86.2949 31.0614ZM86.2949 28.5392C87.4159 28.5392 88.2361 28.1359 88.7556 27.3294C89.2751 26.5091 89.5348 25.1763 89.5348 23.3307C89.5348 21.4442 89.2683 20.0772 88.7351 19.2296C88.2156 18.3683 87.4022 17.9377 86.2949 17.9377C85.1739 17.9377 84.3469 18.3683 83.8137 19.2296C83.2806 20.0908 83.014 21.4579 83.014 23.3307C83.014 25.1626 83.2737 26.4886 83.7932 27.3089C84.3264 28.1291 85.1603 28.5392 86.2949 28.5392ZM103.989 19.2296C103.688 18.9015 103.312 18.6076 102.861 18.3478C102.424 18.0881 101.795 17.9582 100.975 17.9582C100.113 17.9582 99.4709 18.1154 99.0471 18.4299C98.6233 18.7306 98.4115 19.1202 98.4115 19.5987C98.4115 19.7627 98.4525 19.9405 98.5345 20.1318C98.6165 20.3232 98.7806 20.5078 99.0266 20.6855C99.2727 20.8632 99.6213 21.0204 100.072 21.1571L103.312 22.0799C104.57 22.4217 105.486 22.9753 106.06 23.7409C106.634 24.4927 106.921 25.3677 106.921 26.3656C106.921 27.3225 106.675 28.1565 106.183 28.8673C105.691 29.5645 104.987 30.1045 104.071 30.4873C103.155 30.8701 102.068 31.0614 100.811 31.0614C99.881 31.0614 99.0061 30.9589 98.1859 30.7539C97.3793 30.5351 96.6616 30.2275 96.0328 29.8311C95.4176 29.421 94.9323 28.9493 94.5769 28.4162C94.5085 28.2795 94.4812 28.1701 94.4948 28.0881C94.5085 27.9924 94.5769 27.8967 94.6999 27.801L96.2788 26.7142C96.4429 26.6185 96.5728 26.5775 96.6685 26.5912C96.7778 26.6048 96.8735 26.6595 96.9555 26.7552C97.2836 27.1653 97.6049 27.5071 97.9193 27.7805C98.2474 28.0539 98.6233 28.2521 99.0471 28.3752C99.4709 28.4982 99.9767 28.5597 100.565 28.5597C101.453 28.5597 102.164 28.423 102.697 28.1496C103.23 27.8625 103.497 27.4251 103.497 26.8372C103.497 26.6048 103.442 26.3929 103.333 26.2016C103.223 25.9965 103.046 25.8188 102.8 25.6684C102.567 25.5044 102.232 25.354 101.795 25.2173L98.6985 24.3355C97.892 24.1031 97.2153 23.775 96.6685 23.3513C96.1216 22.9275 95.7047 22.4285 95.4176 21.8543C95.1442 21.2802 95.0075 20.6787 95.0075 20.0498C95.0075 19.1749 95.2467 18.3888 95.7252 17.6916C96.2173 16.9944 96.9009 16.4476 97.7758 16.0512C98.6644 15.6411 99.6965 15.436 100.872 15.436C101.651 15.436 102.376 15.5249 103.046 15.7026C103.729 15.8803 104.344 16.1264 104.891 16.4408C105.438 16.7552 105.882 17.138 106.224 17.5891C106.279 17.6575 106.32 17.7395 106.347 17.8352C106.375 17.9172 106.334 18.0061 106.224 18.1018L104.502 19.3731C104.42 19.4278 104.344 19.4483 104.276 19.4346C104.208 19.4073 104.112 19.3389 103.989 19.2296ZM107.872 16.0102C107.872 15.9008 107.906 15.8119 107.974 15.7436C108.043 15.6752 108.145 15.6411 108.282 15.6411H120.052C120.203 15.6411 120.305 15.6752 120.36 15.7436C120.428 15.8119 120.462 15.9008 120.462 16.0102V17.9172C120.462 18.1223 120.339 18.2248 120.093 18.2248H116.259C116.108 18.2248 116.033 18.2931 116.033 18.4299V30.4668C116.033 30.7265 115.917 30.8564 115.684 30.8564H112.752C112.547 30.8564 112.444 30.7402 112.444 30.5078V18.4914C112.444 18.3137 112.369 18.2248 112.219 18.2248H108.261C108.002 18.2248 107.872 18.1223 107.872 17.9172V16.0102ZM122.588 16.0307C122.588 15.7709 122.697 15.6411 122.916 15.6411H133.251C133.456 15.6411 133.559 15.7573 133.559 15.9897L133.538 17.8352C133.538 18.1223 133.395 18.2658 133.107 18.2658H126.566C126.306 18.2658 126.176 18.3752 126.176 18.5939V21.5672C126.176 21.7996 126.279 21.9158 126.484 21.9158H130.831C131.064 21.9158 131.18 22.0252 131.18 22.2439V24.2125C131.18 24.2945 131.153 24.3629 131.098 24.4176C131.057 24.4722 130.975 24.4996 130.852 24.4996H126.464C126.272 24.4996 126.176 24.5816 126.176 24.7456V27.9651C126.176 28.1428 126.252 28.2316 126.402 28.2316H133.415C133.661 28.2316 133.784 28.3342 133.784 28.5392V30.4873C133.784 30.5966 133.75 30.6855 133.682 30.7539C133.627 30.8222 133.524 30.8564 133.374 30.8564H123.039C122.738 30.8564 122.588 30.7128 122.588 30.4258V16.0307ZM148.349 30.3027C148.404 30.4531 148.397 30.583 148.329 30.6923C148.274 30.8017 148.178 30.8564 148.042 30.8564H145.027C144.795 30.8564 144.645 30.7333 144.576 30.4873L142.362 24.7456C142.28 24.5543 142.088 24.4586 141.788 24.4586H139.839C139.744 24.4586 139.675 24.4859 139.634 24.5406C139.607 24.5953 139.593 24.6431 139.593 24.6841V30.3642C139.593 30.6923 139.409 30.8564 139.04 30.8564H136.435C136.271 30.8564 136.155 30.8222 136.087 30.7539C136.032 30.6855 136.005 30.583 136.005 30.4463V16.0307C136.005 15.7709 136.114 15.6411 136.333 15.6411H142.731C144.563 15.6411 145.984 16.0033 146.996 16.7279C148.021 17.4524 148.534 18.4845 148.534 19.8243C148.534 20.5214 148.404 21.1435 148.144 21.6903C147.885 22.2371 147.543 22.6951 147.119 23.0642C146.695 23.4196 146.23 23.6862 145.725 23.8639C145.602 23.9049 145.574 24.0074 145.643 24.1715L148.349 30.3027ZM142.403 22.0389C143.182 22.0389 143.777 21.8748 144.187 21.5467C144.61 21.205 144.822 20.7128 144.822 20.0703C144.822 19.4005 144.61 18.8947 144.187 18.5529C143.763 18.2111 143.202 18.0402 142.505 18.0402H139.983C139.723 18.0402 139.593 18.1564 139.593 18.3888V21.6903C139.593 21.9227 139.689 22.0389 139.88 22.0389H142.403Z" fill="white"/>
</svg>
